<svg width="400" height="399" viewBox="0 0 400 399" fill="none" xmlns="http://www.w3.org/2000/svg">
<path d="M100 100.46C45.3238 100.46 1 144.784 1 199.46C1 254.136 45.3238 298.46 100 298.46C154.676 298.46 199 254.136 199 199.46H200C200 254.689 155.228 299.46 100 299.46C44.7715 299.46 0 254.689 0 199.46C0 144.232 44.7715 99.4603 100 99.4603C155.228 99.4603 200 144.232 200 199.46H199C199 144.784 154.676 100.46 100 100.46Z" fill="#4A13A4"/>
<path d="M122.769 81.8325C69.2871 70.4647 16.7164 104.604 5.34863 158.086C-6.01919 211.567 28.1206 264.138 81.602 275.506C135.083 286.874 187.654 252.734 199.022 199.252L200 199.46C188.517 253.482 135.416 287.967 81.3941 276.484C27.3725 265.001 -7.11217 211.9 4.37048 157.878C15.8531 103.856 68.9548 69.3717 122.976 80.8543C176.998 92.337 211.483 145.439 200 199.46L199.022 199.252C210.39 145.771 176.25 93.2003 122.769 81.8325Z" fill="#4A13A4"/>
<path d="M148.912 68.3456C98.9632 46.1068 40.4433 68.5705 18.2045 118.52C-4.03436 168.469 18.4293 226.989 68.3785 249.228C118.328 271.466 176.848 249.003 199.086 199.054L200 199.46C177.537 249.914 118.426 272.605 67.9718 250.141C17.5181 227.678 -5.17253 168.567 17.2909 118.113C39.7544 67.6592 98.8654 44.9686 149.319 67.4321C199.773 89.8955 222.463 149.007 200 199.46L199.086 199.054C221.325 149.104 198.862 90.5844 148.912 68.3456Z" fill="#4A13A4"/>
<path d="M177.289 60.5891C133.055 28.4512 71.1435 38.257 39.0056 82.491C6.86776 126.725 16.6736 188.637 60.9076 220.774C105.142 252.912 167.053 243.106 199.191 198.872L200 199.46C167.538 244.141 105.001 254.046 60.3198 221.583C15.639 189.121 5.73412 126.584 38.1966 81.9032C70.6591 37.2225 133.196 27.3176 177.877 59.7801C222.558 92.2425 232.462 154.78 200 199.46L199.191 198.872C231.329 154.639 221.523 92.7269 177.289 60.5891Z" fill="#4A13A4"/>
<path d="M206.658 58.9019C170.073 18.2695 107.475 14.9889 66.843 51.5745C26.2107 88.16 22.9301 150.757 59.5156 191.39C96.1011 232.022 158.699 235.303 199.331 198.717L200 199.46C158.957 236.415 95.7275 233.102 58.7725 192.059C21.8174 151.016 25.1311 87.7864 66.1739 50.8313C107.217 13.8763 170.446 17.19 207.401 58.2327C244.356 99.2755 241.043 162.505 200 199.46L199.331 198.717C239.963 162.132 243.244 99.5342 206.658 58.9019Z" fill="#4A13A4"/>
<path d="M235.737 63.3577C208.398 16.0068 147.851 -0.216873 100.5 27.1212C53.149 54.4593 36.9254 115.007 64.2635 162.358C91.6016 209.709 152.149 225.932 199.5 198.594L200 199.46C152.171 227.075 91.0117 210.687 63.3975 162.858C35.7832 115.028 52.1707 53.8694 100 26.2552C147.829 -1.35904 208.988 15.0285 236.603 62.8577C264.217 110.687 247.829 171.846 200 199.46L199.5 198.594C246.851 171.256 263.075 110.709 235.737 63.3577Z" fill="#4A13A4"/>
<path d="M263.253 73.7619C246.357 21.7618 190.506 -6.69584 138.506 10.2C86.5055 27.0959 58.0478 82.9472 74.9437 134.947C91.8396 186.947 147.691 215.405 199.691 198.509L200 199.46C147.475 216.527 91.0592 187.782 73.9927 135.256C56.9261 82.7309 85.6712 26.3155 138.197 9.24897C190.722 -7.81756 247.137 20.9275 264.204 73.4529C281.27 125.978 252.525 182.394 200 199.46L199.691 198.509C251.691 181.613 280.149 125.762 263.253 73.7619Z" fill="#4A13A4"/>
<path d="M288.005 89.6598C282.29 35.2831 233.576 -4.16479 179.199 1.55042C124.822 7.26564 85.3743 55.9797 91.0895 110.356C96.8047 164.733 145.519 204.181 199.895 198.466L200 199.46C145.074 205.233 95.8679 165.387 90.095 110.461C84.322 55.535 124.168 6.32885 179.094 0.555901C234.02 -5.21704 283.226 34.6293 288.999 89.5552C294.772 144.481 254.926 193.687 200 199.46L199.895 198.466C254.272 192.751 293.72 144.036 288.005 89.6598Z" fill="#4A13A4"/>
<path d="M308.911 110.356C314.626 55.9797 275.178 7.26565 220.801 1.55042C166.425 -4.1648 117.71 35.2831 111.995 89.6598C106.28 144.036 145.728 192.751 200.105 198.466L200 199.46C145.074 193.687 105.228 144.481 111.001 89.5552C116.774 34.6293 165.98 -5.21705 220.906 0.555902C275.832 6.32885 315.678 55.535 309.905 110.461C304.132 165.387 254.926 205.233 200 199.46L200.105 198.466C254.481 204.181 303.195 164.733 308.911 110.356Z" fill="#4A13A4"/>
<path d="M325.056 134.947C341.952 82.9472 313.495 27.0959 261.494 10.2C209.494 -6.69584 153.643 21.7618 136.747 73.7619C119.851 125.762 148.309 181.613 200.309 198.509L200 199.46C147.475 182.394 118.73 125.978 135.796 73.4529C152.863 20.9275 209.278 -7.81756 261.803 9.24898C314.329 26.3155 343.074 82.7309 326.007 135.256C308.941 187.782 252.525 216.527 200 199.46L200.309 198.509C252.309 215.405 308.16 186.947 325.056 134.947Z" fill="#4A13A4"/>
<path d="M335.737 162.358C363.075 115.007 346.851 54.4593 299.5 27.1212C252.149 -0.216866 191.602 16.0068 164.263 63.3577C136.925 110.709 153.149 171.256 200.5 198.594L200 199.46C152.171 171.846 135.783 110.687 163.397 62.8577C191.012 15.0285 252.171 -1.35903 300 26.2552C347.829 53.8694 364.217 115.028 336.603 162.858C308.988 210.687 247.829 227.075 200 199.46L200.5 198.594C247.851 225.932 308.398 209.709 335.737 162.358Z" fill="#4A13A4"/>
<path d="M340.484 191.39C377.07 150.757 373.789 88.16 333.157 51.5745C292.525 14.989 229.927 18.2695 193.342 58.9019C156.756 99.5342 160.037 162.132 200.669 198.717L200 199.46C158.957 162.505 155.644 99.2755 192.599 58.2327C229.554 17.19 292.783 13.8763 333.826 50.8313C374.869 87.7864 378.183 151.016 341.228 192.059C304.272 233.102 241.043 236.415 200 199.46L200.669 198.717C241.301 235.303 303.899 232.022 340.484 191.39Z" fill="#4A13A4"/>
<path d="M339.092 220.774C383.326 188.637 393.132 126.725 360.994 82.491C328.857 38.2571 266.945 28.4512 222.711 60.5891C178.477 92.7269 168.671 154.639 200.809 198.872L200 199.46C167.538 154.78 177.442 92.2425 222.123 59.7801C266.804 27.3176 329.341 37.2225 361.803 81.9032C394.266 126.584 384.361 189.121 339.68 221.583C294.999 254.046 232.462 244.141 200 199.46L200.809 198.872C232.947 243.106 294.858 252.912 339.092 220.774Z" fill="#4A13A4"/>
<path d="M331.621 249.228C381.571 226.989 404.034 168.469 381.796 118.52C359.557 68.5705 301.037 46.1068 251.088 68.3456C201.138 90.5844 178.675 149.104 200.914 199.054L200 199.46C177.537 149.007 200.227 89.8955 250.681 67.4321C301.135 44.9686 360.246 67.6592 382.709 118.113C405.173 168.567 382.482 227.678 332.028 250.141C281.574 272.605 222.463 249.914 200 199.46L200.914 199.054C223.152 249.003 281.672 271.466 331.621 249.228Z" fill="#4A13A4"/>
<path d="M318.398 275.506C371.879 264.138 406.019 211.567 394.651 158.086C383.284 104.604 330.713 70.4647 277.232 81.8325C223.75 93.2003 189.61 145.771 200.978 199.252L200 199.46C188.517 145.439 223.002 92.337 277.024 80.8544C331.045 69.3717 384.147 103.856 395.63 157.878C407.112 211.9 372.628 265.001 318.606 276.484C264.584 287.967 211.483 253.482 200 199.46L200.978 199.252C212.346 252.734 264.917 286.874 318.398 275.506Z" fill="#4A13A4"/>
<path d="M300 298.46C354.676 298.46 399 254.136 399 199.46C399 144.784 354.676 100.46 300 100.46C245.324 100.46 201 144.784 201 199.46H200C200 144.232 244.772 99.4603 300 99.4603C355.228 99.4603 400 144.232 400 199.46C400 254.689 355.228 299.46 300 299.46C244.772 299.46 200 254.689 200 199.46H201C201 254.136 245.324 298.46 300 298.46Z" fill="#4A13A4"/>
<path d="M277.232 317.088C330.713 328.456 383.284 294.316 394.651 240.835C406.019 187.353 371.879 134.783 318.398 123.415C264.917 112.047 212.346 146.187 200.978 199.668L200 199.46C211.483 145.439 264.584 110.954 318.606 122.437C372.628 133.919 407.112 187.021 395.63 241.043C384.147 295.064 331.045 329.549 277.024 318.066C223.002 306.584 188.517 253.482 200 199.46L200.978 199.668C189.61 253.15 223.75 305.72 277.232 317.088Z" fill="#4A13A4"/>
<path d="M251.088 330.575C301.037 352.814 359.557 330.35 381.796 280.401C404.034 230.452 381.571 171.932 331.621 149.693C281.672 127.454 223.152 149.918 200.914 199.867L200 199.46C222.463 149.007 281.575 126.316 332.028 148.779C382.482 171.243 405.173 230.354 382.709 280.808C360.246 331.261 301.135 353.952 250.681 331.488C200.227 309.025 177.537 249.914 200 199.46L200.914 199.867C178.675 249.816 201.138 308.336 251.088 330.575Z" fill="#4A13A4"/>
<path d="M222.711 338.331C266.945 370.469 328.857 360.664 360.994 316.43C393.132 272.196 383.326 210.284 339.092 178.146C294.858 146.008 232.947 155.814 200.809 200.048L200 199.46C232.462 154.78 294.999 144.875 339.68 177.337C384.361 209.8 394.266 272.337 361.803 317.017C329.341 361.698 266.804 371.603 222.123 339.141C177.442 306.678 167.538 244.141 200 199.46L200.809 200.048C168.671 244.282 178.477 306.194 222.711 338.331Z" fill="#4A13A4"/>
<path d="M193.342 340.019C229.927 380.651 292.525 383.932 333.157 347.346C373.789 310.761 377.07 248.163 340.484 207.531C303.899 166.899 241.301 163.618 200.669 200.203L200 199.46C241.043 162.505 304.272 165.819 341.228 206.862C378.183 247.904 374.869 311.134 333.826 348.089C292.783 385.044 229.554 381.731 192.599 340.688C155.643 299.645 158.957 236.415 200 199.46L200.669 200.203C160.037 236.789 156.756 299.386 193.342 340.019Z" fill="#4A13A4"/>
<path d="M164.263 335.563C191.602 382.914 252.149 399.137 299.5 371.799C346.851 344.461 363.075 283.914 335.737 236.563C308.398 189.212 247.851 172.988 200.5 200.326L200 199.46C247.829 171.846 308.988 188.234 336.603 236.063C364.217 283.892 347.829 345.051 300 372.665C252.171 400.28 191.012 383.892 163.397 336.063C135.783 288.234 152.171 227.075 200 199.46L200.5 200.326C153.149 227.664 136.925 288.212 164.263 335.563Z" fill="#4A13A4"/>
<path d="M136.747 325.159C153.643 377.159 209.494 405.616 261.494 388.721C313.495 371.825 341.952 315.973 325.056 263.973C308.16 211.973 252.309 183.515 200.309 200.411L200 199.46C252.525 182.394 308.941 211.139 326.007 263.664C343.074 316.19 314.329 372.605 261.803 389.672C209.278 406.738 152.863 377.993 135.796 325.468C118.73 272.942 147.475 216.527 200 199.46L200.309 200.411C148.309 217.307 119.851 273.158 136.747 325.159Z" fill="#4A13A4"/>
<path d="M111.995 309.261C117.71 363.637 166.424 403.085 220.801 397.37C275.178 391.655 314.626 342.941 308.91 288.564C303.195 234.188 254.481 194.74 200.105 200.455L200 199.46C254.926 193.687 304.132 233.534 309.905 288.46C315.678 343.386 275.832 392.592 220.906 398.365C165.98 404.138 116.774 364.291 111.001 309.365C105.228 254.439 145.074 205.233 200 199.46L200.105 200.455C145.728 206.17 106.28 254.884 111.995 309.261Z" fill="#4A13A4"/>
<path d="M91.0895 288.564C85.3742 342.941 124.822 391.655 179.199 397.37C233.575 403.085 282.29 363.638 288.005 309.261C293.72 254.884 254.272 206.17 199.895 200.455L200 199.46C254.926 205.233 294.772 254.439 288.999 309.365C283.226 364.291 234.02 404.138 179.094 398.365C124.168 392.592 84.322 343.386 90.0949 288.46C95.8679 233.534 145.074 193.687 200 199.46L199.895 200.455C145.519 194.74 96.8047 234.187 91.0895 288.564Z" fill="#4A13A4"/>
<path d="M74.9437 263.973C58.0478 315.973 86.5054 371.825 138.506 388.721C190.506 405.616 246.357 377.159 263.253 325.159C280.149 273.158 251.691 217.307 199.691 200.411L200 199.46C252.525 216.527 281.27 272.942 264.204 325.468C247.137 377.993 190.722 406.738 138.197 389.672C85.6712 372.605 56.9261 316.19 73.9926 263.664C91.0592 211.139 147.475 182.394 200 199.46L199.691 200.411C147.691 183.515 91.8396 211.973 74.9437 263.973Z" fill="#4A13A4"/>
<path d="M64.2635 236.563C36.9254 283.914 53.149 344.461 100.5 371.799C147.851 399.137 208.398 382.914 235.737 335.563C263.075 288.212 246.851 227.664 199.5 200.326L200 199.46C247.829 227.075 264.217 288.234 236.603 336.063C208.988 383.892 147.829 400.28 100 372.665C52.1707 345.051 35.7832 283.892 63.3975 236.063C91.0117 188.234 152.171 171.846 200 199.46L199.5 200.326C152.149 172.988 91.6016 189.212 64.2635 236.563Z" fill="#4A13A4"/>
<path d="M59.5156 207.531C22.9301 248.163 26.2107 310.761 66.843 347.346C107.475 383.932 170.073 380.651 206.658 340.019C243.244 299.386 239.963 236.789 199.331 200.203L200 199.46C241.043 236.415 244.356 299.645 207.401 340.688C170.446 381.731 107.217 385.044 66.1739 348.089C25.1311 311.134 21.8174 247.904 58.7725 206.862C95.7275 165.819 158.957 162.505 200 199.46L199.331 200.203C158.699 163.618 96.1011 166.898 59.5156 207.531Z" fill="#4A13A4"/>
<path d="M60.9076 178.146C16.6736 210.284 6.86773 272.195 39.0056 316.429C71.1434 360.663 133.055 370.469 177.289 338.331C221.523 306.194 231.329 244.282 199.191 200.048L200 199.46C232.462 244.141 222.558 306.678 177.877 339.141C133.196 371.603 70.659 361.698 38.1966 317.017C5.73409 272.336 15.639 209.8 60.3198 177.337C105.001 144.875 167.538 154.779 200 199.46L199.191 200.048C167.053 155.814 105.142 146.008 60.9076 178.146Z" fill="#4A13A4"/>
<path d="M68.3785 149.693C18.4293 171.932 -4.03436 230.452 18.2044 280.401C40.4432 330.35 98.9632 352.814 148.912 330.575C198.862 308.336 221.325 249.816 199.086 199.867L200 199.46C222.463 249.914 199.773 309.025 149.319 331.488C98.8654 353.952 39.7543 331.261 17.2909 280.808C-5.17254 230.354 17.5181 171.243 67.9718 148.779C118.426 126.316 177.537 149.007 200 199.46L199.086 199.867C176.848 149.918 118.328 127.454 68.3785 149.693Z" fill="#4A13A4"/>
<path d="M81.602 123.415C28.1206 134.783 -6.01919 187.353 5.34863 240.835C16.7165 294.316 69.2871 328.456 122.769 317.088C176.25 305.72 210.39 253.15 199.022 199.668L200 199.46C211.483 253.482 176.998 306.584 122.976 318.066C68.9548 329.549 15.8531 295.064 4.37048 241.043C-7.11217 187.021 27.3725 133.919 81.3941 122.437C135.416 110.954 188.517 145.439 200 199.46L199.022 199.668C187.654 146.187 135.083 112.047 81.602 123.415Z" fill="#4A13A4"/>
</svg>
