<svg width="254" height="190" viewBox="0 0 254 190" fill="none" xmlns="http://www.w3.org/2000/svg">
<path d="M217 61.5L181 125.5L217 186.5L254 124L217 61.5Z" fill="url(#paint0_linear_70_70)"/>
<path d="M36 0.5L0 64.5L36 125.5L73 63L36 0.5Z" fill="url(#paint1_linear_70_70)"/>
<path d="M181 0H110.5L73 63.5L110.5 125.5L143 189.5L181 125.5L143 63.5L181 0Z" fill="url(#paint2_linear_70_70)"/>
<path d="M143 189.5L110.5 125.5L73 189.5H143Z" fill="url(#paint3_linear_70_70)"/>
<defs>
<linearGradient id="paint0_linear_70_70" x1="197.5" y1="81" x2="213" y2="153" gradientUnits="userSpaceOnUse">
<stop stop-color="#B456FB"/>
<stop offset="1" stop-color="#611CCB"/>
</linearGradient>
<linearGradient id="paint1_linear_70_70" x1="47" y1="48" x2="32" y2="92" gradientUnits="userSpaceOnUse">
<stop stop-color="#B456FB"/>
<stop offset="1" stop-color="#611CCB"/>
</linearGradient>
<linearGradient id="paint2_linear_70_70" x1="93.5" y1="25" x2="143" y2="179" gradientUnits="userSpaceOnUse">
<stop stop-color="#C661FC"/>
<stop offset="0.7" stop-color="#7722E7"/>
<stop offset="1" stop-color="#5113B1"/>
</linearGradient>
<linearGradient id="paint3_linear_70_70" x1="90.5" y1="152.5" x2="131" y2="182.5" gradientUnits="userSpaceOnUse">
<stop stop-color="#B456FB"/>
<stop offset="1" stop-color="#611CCB"/>
</linearGradient>
</defs>
</svg>
